<svg width="64" height="64" xmlns="http://www.w3.org/2000/svg">

 <g>
  <title>background</title>
  <rect fill="none" id="canvas_background" height="402" width="582" y="-1" x="-1"/>
 </g>
 <g>
  <title>Layer 1</title>
  <path id="svg_2" fill="#ffffff" d="m34.414,19c-1.291,-1.289 -3.537,-1.29 -4.828,0l-4.586,4.585c-0.645,0.645 -1,1.502 -1,2.415l0,12c0,0.912 0.355,1.77 1,2.414l4.586,4.586c0.645,0.645 1.502,1 2.414,1s1.77,-0.355 2.414,-1l4.586,-4.586c0.645,-0.645 1,-1.502 1,-2.414l0,-12c0,-0.913 -0.355,-1.77 -1,-2.414l-4.586,-4.586zm3.586,19c0,0.378 -0.147,0.732 -0.414,1l-4.586,4.586c-0.535,0.533 -1.465,0.533 -2,0l-4.586,-4.586c-0.267,-0.268 -0.414,-0.622 -0.414,-1l0,-12c0,-0.378 0.146,-0.733 0.414,-1l4.586,-4.585c0.268,-0.268 0.622,-0.415 1,-0.415s0.732,0.147 1,0.414l4.586,4.586c0.268,0.267 0.414,0.622 0.414,1l0,12z"/>
  <path id="svg_3" fill="#ffffff" d="m30.586,25l-2.586,2.586l0,8.828l2.586,2.586l2.828,0l2.586,-2.586l0,-8.828l-2.586,-2.586l-2.828,0zm3.414,10.586l-1.414,1.414l-1.172,0l-1.414,-1.414l0,-7.172l1.414,-1.414l1.172,0l1.414,1.414l0,7.172z"/>
  <path id="svg_4" fill="#ffffff" d="m32,14.414l5.086,-5.086c0.59,-0.589 0.914,-1.373 0.914,-2.207c0,-1.721 -1.4,-3.121 -3.121,-3.121c-0.822,0 -1.626,0.333 -2.207,0.914l-0.672,0.672l-0.672,-0.672c-0.581,-0.581 -1.385,-0.914 -2.207,-0.914c-1.721,0 -3.121,1.4 -3.121,3.121c0,0.834 0.324,1.618 0.914,2.207l5.086,5.086zm-2.879,-8.414c0.295,0 0.584,0.12 0.793,0.328l2.086,2.086l2.086,-2.086c0.209,-0.208 0.498,-0.328 0.793,-0.328c0.618,0 1.121,0.503 1.121,1.121c0,0.3 -0.116,0.581 -0.328,0.793l-3.672,3.672l-3.672,-3.672c-0.212,-0.212 -0.328,-0.493 -0.328,-0.793c0,-0.618 0.503,-1.121 1.121,-1.121z"/>
  <path id="svg_5" fill="#ffffff" d="m4,34.879c0,1.721 1.4,3.121 3.121,3.121c0.822,0 1.626,-0.333 2.207,-0.914l5.086,-5.086l-5.086,-5.086c-0.581,-0.581 -1.385,-0.914 -2.207,-0.914c-1.721,0 -3.121,1.4 -3.121,3.121c0,0.834 0.324,1.618 0.914,2.207l0.672,0.672l-0.672,0.672c-0.581,0.581 -0.914,1.385 -0.914,2.207zm2.328,-4.965c-0.212,-0.212 -0.328,-0.493 -0.328,-0.793c0,-0.618 0.503,-1.121 1.121,-1.121c0.295,0 0.584,0.12 0.793,0.328l3.672,3.672l-3.672,3.672c-0.209,0.209 -0.498,0.328 -0.793,0.328c-0.618,0 -1.121,-0.503 -1.121,-1.121c0,-0.295 0.119,-0.584 0.328,-0.793l2.086,-2.086l-2.086,-2.086z"/>
  <path id="svg_6" fill="#ffffff" d="m32,49.586l-5.086,5.086c-0.581,0.581 -0.914,1.385 -0.914,2.207c0,1.721 1.4,3.121 3.121,3.121c0.822,0 1.626,-0.333 2.207,-0.914l0.672,-0.672l0.672,0.672c0.581,0.581 1.385,0.914 2.207,0.914c1.721,0 3.121,-1.4 3.121,-3.121c0,-0.822 -0.333,-1.626 -0.914,-2.207l-5.086,-5.086zm2.879,8.414c-0.295,0 -0.584,-0.119 -0.793,-0.328l-2.086,-2.086l-2.086,2.086c-0.209,0.209 -0.498,0.328 -0.793,0.328c-0.618,0 -1.121,-0.503 -1.121,-1.121c0,-0.295 0.119,-0.584 0.328,-0.793l3.672,-3.672l3.672,3.672c0.209,0.209 0.328,0.498 0.328,0.793c0,0.618 -0.503,1.121 -1.121,1.121z"/>
  <path id="svg_7" fill="#ffffff" d="m60,29.121c0,-1.721 -1.4,-3.121 -3.121,-3.121c-0.822,0 -1.626,0.333 -2.207,0.914l-5.086,5.086l5.086,5.086c0.581,0.581 1.385,0.914 2.207,0.914c1.721,0 3.121,-1.4 3.121,-3.121c0,-0.822 -0.333,-1.626 -0.914,-2.207l-0.672,-0.672l0.672,-0.672c0.59,-0.589 0.914,-1.373 0.914,-2.207zm-2.328,4.965c0.209,0.209 0.328,0.498 0.328,0.793c0,0.618 -0.503,1.121 -1.121,1.121c-0.295,0 -0.584,-0.119 -0.793,-0.328l-3.672,-3.672l3.672,-3.672c0.209,-0.208 0.498,-0.328 0.793,-0.328c0.618,0 1.121,0.503 1.121,1.121c0,0.3 -0.116,0.581 -0.328,0.793l-2.086,2.086l2.086,2.086z"/>
  <path id="svg_8" fill="#ffffff" d="m17.437,13.194l-3.245,-3.244l0,-2.95c0,-0.833 -0.324,-1.617 -0.914,-2.208c-1.152,-1.151 -3.143,-1.182 -4.327,-0.083l-2.83,-2.83c-1.17,-1.17 -3.072,-1.169 -4.242,0c-0.567,0.566 -0.879,1.32 -0.879,2.121s0.312,1.555 0.879,2.121l2.83,2.831c-1.133,1.222 -1.104,3.138 0.083,4.326c0.581,0.581 1.386,0.914 2.208,0.914l2.95,0l3.244,3.245c-1.133,1.222 -1.104,3.138 0.083,4.326c0.581,0.582 1.386,0.915 2.208,0.915l7.192,0l0,-7.192c0,-0.833 -0.324,-1.617 -0.914,-2.208c-1.152,-1.151 -3.141,-1.183 -4.326,-0.084zm3.241,7.484l-5.192,0c-0.295,0 -0.584,-0.12 -0.793,-0.329c-0.437,-0.437 -0.437,-1.148 0.001,-1.586c0.106,-0.107 0.242,-0.192 0.401,-0.251l1.46,-0.543l-5.776,-5.776l-3.779,0c-0.295,0 -0.584,-0.12 -0.793,-0.329c-0.437,-0.437 -0.437,-1.148 0.001,-1.586c0.106,-0.107 0.242,-0.192 0.401,-0.251l1.46,-0.543l-4.776,-4.777c-0.189,-0.189 -0.293,-0.44 -0.293,-0.707s0.104,-0.518 0.293,-0.707c0.195,-0.195 0.451,-0.293 0.707,-0.293s0.512,0.098 0.707,0.292l4.774,4.774l0.544,-1.457c0.061,-0.16 0.145,-0.296 0.253,-0.404c0.424,-0.423 1.163,-0.423 1.585,0c0.209,0.211 0.329,0.5 0.329,0.795l0,3.778l5.774,5.775l0.544,-1.457c0.061,-0.16 0.145,-0.296 0.252,-0.403l0.001,-0.001c0.424,-0.422 1.163,-0.424 1.585,0c0.209,0.209 0.329,0.499 0.329,0.793l0,5.193l0.001,0z"/>
  <path id="svg_9" fill="#ffffff" d="m13.277,42.236c-1.187,1.189 -1.215,3.105 -0.083,4.327l-3.244,3.245l-2.95,0c-0.822,0 -1.626,0.333 -2.207,0.914c-1.188,1.189 -1.216,3.106 -0.084,4.327l-2.83,2.83c-1.17,1.17 -1.17,3.072 0,4.242c0.585,0.585 1.352,0.877 2.121,0.877s1.536,-0.292 2.121,-0.877l2.83,-2.83c1.224,1.131 3.14,1.104 4.327,-0.084c0.581,-0.581 0.914,-1.385 0.914,-2.207l0,-2.95l3.244,-3.244c1.224,1.131 3.139,1.104 4.327,-0.084c0.581,-0.581 0.914,-1.385 0.914,-2.207l0,-7.192l-7.192,0c-0.822,-0.001 -1.626,0.332 -2.208,0.913zm7.401,6.279c0,0.295 -0.119,0.584 -0.328,0.793c-0.438,0.436 -1.148,0.438 -1.588,-0.002c-0.106,-0.105 -0.19,-0.241 -0.251,-0.401l-0.544,-1.457l-5.774,5.774l0,3.778c0,0.295 -0.119,0.584 -0.328,0.792c-0.438,0.438 -1.148,0.438 -1.588,-0.001c-0.106,-0.105 -0.19,-0.241 -0.251,-0.401l-0.544,-1.457l-4.774,4.774c-0.391,0.391 -1.023,0.391 -1.414,0c-0.39,-0.39 -0.39,-1.024 0,-1.414l4.774,-4.774l-1.458,-0.544c-0.16,-0.061 -0.296,-0.145 -0.403,-0.253c-0.437,-0.438 -0.437,-1.148 0,-1.586c0.209,-0.209 0.498,-0.328 0.793,-0.328l3.778,0l5.774,-5.774l-1.457,-0.544c-0.16,-0.061 -0.296,-0.145 -0.401,-0.251l-0.002,-0.002c-0.437,-0.438 -0.437,-1.148 0,-1.586c0.209,-0.209 0.498,-0.328 0.793,-0.328l5.192,0l0,5.192l0.001,0z"/>
  <path id="svg_10" fill="#ffffff" d="m59.291,55.049c1.132,-1.222 1.104,-3.138 -0.084,-4.327c-0.581,-0.581 -1.385,-0.914 -2.207,-0.914l-2.95,0l-3.244,-3.244c1.132,-1.222 1.104,-3.138 -0.084,-4.327c-0.581,-0.581 -1.385,-0.914 -2.207,-0.914l-7.192,0l0,7.192c0,0.822 0.333,1.626 0.914,2.208c1.189,1.187 3.104,1.213 4.327,0.083l3.244,3.244l0,2.95c0,0.822 0.333,1.626 0.914,2.207c1.19,1.188 3.105,1.216 4.327,0.084l2.83,2.83c0.585,0.585 1.353,0.877 2.121,0.877s1.536,-0.292 2.121,-0.877c1.17,-1.17 1.17,-3.072 0,-4.242l-2.83,-2.83zm1.416,5.658c-0.391,0.391 -1.023,0.391 -1.414,0l-4.774,-4.774l-0.544,1.457c-0.061,0.16 -0.145,0.296 -0.253,0.403c-0.438,0.438 -1.148,0.438 -1.586,0c-0.209,-0.209 -0.328,-0.498 -0.328,-0.793l0,-3.778l-5.774,-5.774l-0.544,1.457c-0.061,0.16 -0.145,0.296 -0.251,0.401l-0.002,0.002c-0.438,0.438 -1.148,0.438 -1.586,0c-0.209,-0.209 -0.328,-0.498 -0.328,-0.793l0,-5.192l5.192,0c0.295,0 0.584,0.119 0.793,0.328c0.437,0.438 0.437,1.148 -0.002,1.588c-0.105,0.106 -0.241,0.19 -0.401,0.251l-1.457,0.544l5.774,5.774l3.778,0c0.295,0 0.584,0.119 0.792,0.328c0.438,0.438 0.438,1.148 -0.001,1.588c-0.105,0.106 -0.241,0.19 -0.401,0.251l-1.457,0.544l4.774,4.774c0.39,0.39 0.39,1.024 0,1.414z"/>
  <path id="svg_11" fill="#ffffff" d="m50.722,21.763c1.188,-1.188 1.216,-3.104 0.084,-4.327l3.244,-3.244l2.95,0c0.822,0 1.627,-0.333 2.207,-0.915c1.188,-1.188 1.216,-3.104 0.084,-4.326l2.83,-2.83c0.567,-0.566 0.879,-1.32 0.879,-2.121s-0.312,-1.555 -0.879,-2.121c-1.17,-1.17 -3.072,-1.17 -4.242,0l-2.83,2.83c-1.185,-1.099 -3.174,-1.068 -4.328,0.084c-0.589,0.59 -0.913,1.374 -0.913,2.207l0,2.95l-3.244,3.245c-1.186,-1.1 -3.175,-1.069 -4.328,0.084c-0.589,0.59 -0.913,1.374 -0.913,2.207l0,7.192l7.192,0c0.822,0 1.627,-0.334 2.207,-0.915zm-7.4,-6.278c0,-0.295 0.12,-0.584 0.328,-0.792c0.425,-0.425 1.162,-0.424 1.587,0c0.107,0.107 0.191,0.243 0.252,0.403l0.544,1.457l5.774,-5.775l0,-3.778c0,-0.295 0.12,-0.584 0.328,-0.792c0.425,-0.425 1.162,-0.424 1.587,0c0.107,0.107 0.191,0.243 0.252,0.403l0.544,1.457l4.774,-4.774c0.391,-0.39 1.023,-0.39 1.414,0c0.19,0.188 0.294,0.439 0.294,0.706s-0.104,0.518 -0.293,0.707l-4.776,4.776l1.46,0.543c0.159,0.06 0.295,0.144 0.402,0.252c0.437,0.437 0.437,1.148 -0.001,1.586c-0.208,0.208 -0.497,0.328 -0.792,0.328l-3.778,0l-5.776,5.776l1.46,0.543c0.159,0.06 0.295,0.144 0.402,0.251c0.437,0.438 0.437,1.149 -0.001,1.586c-0.208,0.208 -0.497,0.328 -0.792,0.328l-5.192,0l0,-5.191l-0.001,0z"/>
 </g>
</svg>